<svg xmlns="http://www.w3.org/2000/svg" xmlns:xlink="http://www.w3.org/1999/xlink" width="500" zoomAndPan="magnify" viewBox="0 0 375 374.999991" height="500" preserveAspectRatio="xMidYMid meet" version="1.0"><defs><g/></defs><rect x="-37.5" width="450" fill="#ffffff" y="-37.499999" height="449.999989" fill-opacity="1"/><rect x="-37.5" width="450" fill="#0b0b0b" y="-37.499999" height="449.999989" fill-opacity="1"/><g fill="#f3f3f1" fill-opacity="1"><g transform="translate(86.925973, 200.999987)"><g><path d="M 12 -5.15625 L 17.59375 -22.15625 L 23.5625 -22.15625 L 15.359375 0 L 8.5625 0 L 0.40625 -22.15625 L 6.40625 -22.15625 Z M 12 -5.15625 "/></g></g></g><g fill="#f3f3f1" fill-opacity="1"><g transform="translate(110.483601, 200.999987)"><g><path d="M 1.3125 -11.15625 C 1.3125 -13.394531 1.757812 -15.378906 2.65625 -17.109375 C 3.550781 -18.847656 4.765625 -20.179688 6.296875 -21.109375 C 7.828125 -22.046875 9.539062 -22.515625 11.4375 -22.515625 C 13.09375 -22.515625 14.539062 -22.179688 15.78125 -21.515625 C 17.019531 -20.847656 18.015625 -20.007812 18.765625 -19 L 18.765625 -22.15625 L 24.40625 -22.15625 L 24.40625 0 L 18.765625 0 L 18.765625 -3.234375 C 18.046875 -2.203125 17.050781 -1.34375 15.78125 -0.65625 C 14.507812 0.0195312 13.050781 0.359375 11.40625 0.359375 C 9.53125 0.359375 7.828125 -0.117188 6.296875 -1.078125 C 4.765625 -2.035156 3.550781 -3.390625 2.65625 -5.140625 C 1.757812 -6.890625 1.3125 -8.894531 1.3125 -11.15625 Z M 18.765625 -11.078125 C 18.765625 -12.441406 18.492188 -13.609375 17.953125 -14.578125 C 17.421875 -15.554688 16.703125 -16.300781 15.796875 -16.8125 C 14.890625 -17.332031 13.914062 -17.59375 12.875 -17.59375 C 11.832031 -17.59375 10.875 -17.335938 10 -16.828125 C 9.125 -16.328125 8.410156 -15.585938 7.859375 -14.609375 C 7.316406 -13.640625 7.046875 -12.488281 7.046875 -11.15625 C 7.046875 -9.820312 7.316406 -8.65625 7.859375 -7.65625 C 8.410156 -6.65625 9.128906 -5.890625 10.015625 -5.359375 C 10.910156 -4.828125 11.863281 -4.5625 12.875 -4.5625 C 13.914062 -4.5625 14.890625 -4.820312 15.796875 -5.34375 C 16.703125 -5.863281 17.421875 -6.609375 17.953125 -7.578125 C 18.492188 -8.554688 18.765625 -9.722656 18.765625 -11.078125 Z M 18.765625 -11.078125 "/></g></g></g><g fill="#f3f3f1" fill-opacity="1"><g transform="translate(137.200907, 200.999987)"><g><path d="M 15.046875 -22.484375 C 17.679688 -22.484375 19.8125 -21.648438 21.4375 -19.984375 C 23.0625 -18.316406 23.875 -15.988281 23.875 -13 L 23.875 0 L 18.28125 0 L 18.28125 -12.234375 C 18.28125 -13.992188 17.835938 -15.347656 16.953125 -16.296875 C 16.078125 -17.242188 14.878906 -17.71875 13.359375 -17.71875 C 11.816406 -17.71875 10.597656 -17.242188 9.703125 -16.296875 C 8.804688 -15.347656 8.359375 -13.992188 8.359375 -12.234375 L 8.359375 0 L 2.765625 0 L 2.765625 -22.15625 L 8.359375 -22.15625 L 8.359375 -19.40625 C 9.109375 -20.363281 10.0625 -21.113281 11.21875 -21.65625 C 12.375 -22.207031 13.648438 -22.484375 15.046875 -22.484375 Z M 15.046875 -22.484375 "/></g></g></g><g fill="#f3f3f1" fill-opacity="1"><g transform="translate(163.238285, 200.999987)"><g><path d="M 9.28125 -17.5625 L 9.28125 -6.84375 C 9.28125 -6.09375 9.457031 -5.550781 9.8125 -5.21875 C 10.175781 -4.882812 10.785156 -4.71875 11.640625 -4.71875 L 14.234375 -4.71875 L 14.234375 0 L 10.71875 0 C 6 0 3.640625 -2.289062 3.640625 -6.875 L 3.640625 -17.5625 L 1 -17.5625 L 1 -22.15625 L 3.640625 -22.15625 L 3.640625 -27.640625 L 9.28125 -27.640625 L 9.28125 -22.15625 L 14.234375 -22.15625 L 14.234375 -17.5625 Z M 9.28125 -17.5625 "/></g></g></g><g fill="#f3f3f1" fill-opacity="1"><g transform="translate(178.356753, 200.999987)"><g><path d="M 1.3125 -11.15625 C 1.3125 -13.394531 1.757812 -15.378906 2.65625 -17.109375 C 3.550781 -18.847656 4.765625 -20.179688 6.296875 -21.109375 C 7.828125 -22.046875 9.539062 -22.515625 11.4375 -22.515625 C 13.09375 -22.515625 14.539062 -22.179688 15.78125 -21.515625 C 17.019531 -20.847656 18.015625 -20.007812 18.765625 -19 L 18.765625 -22.15625 L 24.40625 -22.15625 L 24.40625 0 L 18.765625 0 L 18.765625 -3.234375 C 18.046875 -2.203125 17.050781 -1.34375 15.78125 -0.65625 C 14.507812 0.0195312 13.050781 0.359375 11.40625 0.359375 C 9.53125 0.359375 7.828125 -0.117188 6.296875 -1.078125 C 4.765625 -2.035156 3.550781 -3.390625 2.65625 -5.140625 C 1.757812 -6.890625 1.3125 -8.894531 1.3125 -11.15625 Z M 18.765625 -11.078125 C 18.765625 -12.441406 18.492188 -13.609375 17.953125 -14.578125 C 17.421875 -15.554688 16.703125 -16.300781 15.796875 -16.8125 C 14.890625 -17.332031 13.914062 -17.59375 12.875 -17.59375 C 11.832031 -17.59375 10.875 -17.335938 10 -16.828125 C 9.125 -16.328125 8.410156 -15.585938 7.859375 -14.609375 C 7.316406 -13.640625 7.046875 -12.488281 7.046875 -11.15625 C 7.046875 -9.820312 7.316406 -8.65625 7.859375 -7.65625 C 8.410156 -6.65625 9.128906 -5.890625 10.015625 -5.359375 C 10.910156 -4.828125 11.863281 -4.5625 12.875 -4.5625 C 13.914062 -4.5625 14.890625 -4.820312 15.796875 -5.34375 C 16.703125 -5.863281 17.421875 -6.609375 17.953125 -7.578125 C 18.492188 -8.554688 18.765625 -9.722656 18.765625 -11.078125 Z M 18.765625 -11.078125 "/></g></g></g><g fill="#f3f3f1" fill-opacity="1"><g transform="translate(205.074059, 200.999987)"><g><path d="M 8.359375 -29.59375 L 8.359375 0 L 2.765625 0 L 2.765625 -29.59375 Z M 8.359375 -29.59375 "/></g></g></g><g fill="#f3f3f1" fill-opacity="1"><g transform="translate(215.792961, 200.999987)"><g><path d="M 12.59375 0.359375 C 10.46875 0.359375 8.550781 -0.113281 6.84375 -1.0625 C 5.132812 -2.007812 3.789062 -3.347656 2.8125 -5.078125 C 1.84375 -6.816406 1.359375 -8.816406 1.359375 -11.078125 C 1.359375 -13.347656 1.859375 -15.347656 2.859375 -17.078125 C 3.859375 -18.816406 5.222656 -20.15625 6.953125 -21.09375 C 8.691406 -22.039062 10.628906 -22.515625 12.765625 -22.515625 C 14.890625 -22.515625 16.816406 -22.039062 18.546875 -21.09375 C 20.285156 -20.15625 21.65625 -18.816406 22.65625 -17.078125 C 23.65625 -15.347656 24.15625 -13.347656 24.15625 -11.078125 C 24.15625 -8.816406 23.640625 -6.816406 22.609375 -5.078125 C 21.585938 -3.347656 20.203125 -2.007812 18.453125 -1.0625 C 16.710938 -0.113281 14.757812 0.359375 12.59375 0.359375 Z M 12.59375 -4.515625 C 13.613281 -4.515625 14.566406 -4.757812 15.453125 -5.25 C 16.347656 -5.75 17.0625 -6.488281 17.59375 -7.46875 C 18.132812 -8.457031 18.40625 -9.660156 18.40625 -11.078125 C 18.40625 -13.179688 17.847656 -14.800781 16.734375 -15.9375 C 15.628906 -17.070312 14.28125 -17.640625 12.6875 -17.640625 C 11.082031 -17.640625 9.738281 -17.070312 8.65625 -15.9375 C 7.582031 -14.800781 7.046875 -13.179688 7.046875 -11.078125 C 7.046875 -8.972656 7.570312 -7.351562 8.625 -6.21875 C 9.675781 -5.082031 11 -4.515625 12.59375 -4.515625 Z M 12.59375 -4.515625 "/></g></g></g><g fill="#00d689" fill-opacity="1"><g transform="translate(240.922061, 200.999987)"><g><path d="M 5.234375 0.28125 C 4.222656 0.28125 3.390625 -0.03125 2.734375 -0.65625 C 2.085938 -1.28125 1.765625 -2.0625 1.765625 -3 C 1.765625 -3.9375 2.085938 -4.71875 2.734375 -5.34375 C 3.390625 -5.96875 4.222656 -6.28125 5.234375 -6.28125 C 6.222656 -6.28125 7.035156 -5.96875 7.671875 -5.34375 C 8.316406 -4.71875 8.640625 -3.9375 8.640625 -3 C 8.640625 -2.0625 8.316406 -1.28125 7.671875 -0.65625 C 7.035156 -0.03125 6.222656 0.28125 5.234375 0.28125 Z M 5.234375 0.28125 "/></g></g></g><g fill="#00d689" fill-opacity="1"><g transform="translate(250.921038, 200.999987)"><g><path d="M 5.59375 -24.796875 C 4.613281 -24.796875 3.796875 -25.109375 3.140625 -25.734375 C 2.484375 -26.367188 2.15625 -27.148438 2.15625 -28.078125 C 2.15625 -29.015625 2.484375 -29.796875 3.140625 -30.421875 C 3.796875 -31.046875 4.613281 -31.359375 5.59375 -31.359375 C 6.582031 -31.359375 7.40625 -31.046875 8.0625 -30.421875 C 8.71875 -29.796875 9.046875 -29.015625 9.046875 -28.078125 C 9.046875 -27.148438 8.71875 -26.367188 8.0625 -25.734375 C 7.40625 -25.109375 6.582031 -24.796875 5.59375 -24.796875 Z M 8.359375 -22.15625 L 8.359375 0 L 2.765625 0 L 2.765625 -22.15625 Z M 8.359375 -22.15625 "/></g></g></g><g fill="#00d689" fill-opacity="1"><g transform="translate(261.639939, 200.999987)"><g><path d="M 15.046875 -22.484375 C 17.679688 -22.484375 19.8125 -21.648438 21.4375 -19.984375 C 23.0625 -18.316406 23.875 -15.988281 23.875 -13 L 23.875 0 L 18.28125 0 L 18.28125 -12.234375 C 18.28125 -13.992188 17.835938 -15.347656 16.953125 -16.296875 C 16.078125 -17.242188 14.878906 -17.71875 13.359375 -17.71875 C 11.816406 -17.71875 10.597656 -17.242188 9.703125 -16.296875 C 8.804688 -15.347656 8.359375 -13.992188 8.359375 -12.234375 L 8.359375 0 L 2.765625 0 L 2.765625 -22.15625 L 8.359375 -22.15625 L 8.359375 -19.40625 C 9.109375 -20.363281 10.0625 -21.113281 11.21875 -21.65625 C 12.375 -22.207031 13.648438 -22.484375 15.046875 -22.484375 Z M 15.046875 -22.484375 "/></g></g></g></svg>